<mxfile host="app.diagrams.net" modified="2021-07-01T18:54:20.492Z" agent="5.0 (Linux; Android 10; Lenovo TB-X606F) AppleWebKit/537.36 (KHTML, like Gecko) Chrome/91.0.4472.120 Safari/537.36" etag="HY0HE9ndDqVUHX6V6bsA" version="14.8.3" type="github">
  <diagram id="NWYkFUK9LSVxFtsLqtCG" name="Page-1">
    <mxGraphModel dx="487" dy="234" grid="1" gridSize="10" guides="1" tooltips="1" connect="1" arrows="1" fold="1" page="1" pageScale="1" pageWidth="827" pageHeight="1169" math="0" shadow="0">
      <root>
        <mxCell id="0" />
        <mxCell id="1" parent="0" />
        <mxCell id="OrH7R6QqTdeNsJV3QqQG-1" value="Pee" style="swimlane;fontStyle=1;align=center;verticalAlign=top;childLayout=stackLayout;horizontal=1;startSize=26;horizontalStack=0;resizeParent=1;resizeParentMax=0;resizeLast=0;collapsible=1;marginBottom=0;" parent="1" vertex="1" collapsed="1">
          <mxGeometry x="590" y="430" width="50" height="26" as="geometry">
            <mxRectangle x="590" y="430" width="190" height="270" as="alternateBounds" />
          </mxGeometry>
        </mxCell>
        <mxCell id="OrH7R6QqTdeNsJV3QqQG-2" value="+ pid: String&#xa;+amount: String&#xa;+date: String&#xa;+uid: String&#xa;&#xa;&#xa;" style="text;strokeColor=none;fillColor=none;align=left;verticalAlign=top;spacingLeft=4;spacingRight=4;overflow=hidden;rotatable=0;points=[[0,0.5],[1,0.5]];portConstraint=eastwest;" parent="OrH7R6QqTdeNsJV3QqQG-1" vertex="1">
          <mxGeometry y="26" width="50" height="64" as="geometry" />
        </mxCell>
        <mxCell id="OrH7R6QqTdeNsJV3QqQG-3" value="" style="line;strokeWidth=1;fillColor=none;align=left;verticalAlign=middle;spacingTop=-1;spacingLeft=3;spacingRight=3;rotatable=0;labelPosition=right;points=[];portConstraint=eastwest;" parent="OrH7R6QqTdeNsJV3QqQG-1" vertex="1">
          <mxGeometry y="90" width="50" height="20" as="geometry" />
        </mxCell>
        <mxCell id="OrH7R6QqTdeNsJV3QqQG-4" value="+Pee (pid, amount, date, uid):&#xa;+getPid():String&#xa;+setPid(pid):void&#xa;+getAmount():String&#xa;+setAmount(amount):void&#xa;+getDate():String&#xa;+setDate(date):void&#xa;+getUid():String&#xa;+setUid(uid):void&#xa;+getType():int&#xa;&#xa;" style="text;strokeColor=none;fillColor=none;align=left;verticalAlign=top;spacingLeft=4;spacingRight=4;overflow=hidden;rotatable=0;points=[[0,0.5],[1,0.5]];portConstraint=eastwest;" parent="OrH7R6QqTdeNsJV3QqQG-1" vertex="1">
          <mxGeometry y="110" width="50" height="160" as="geometry" />
        </mxCell>
        <mxCell id="OrH7R6QqTdeNsJV3QqQG-10" value="Shit" style="swimlane;fontStyle=1;align=center;verticalAlign=top;childLayout=stackLayout;horizontal=1;startSize=26;horizontalStack=0;resizeParent=1;resizeParentMax=0;resizeLast=0;collapsible=1;marginBottom=0;" parent="1" vertex="1" collapsed="1">
          <mxGeometry x="370" y="100" width="60" height="26" as="geometry">
            <mxRectangle x="370" y="100" width="170" height="260" as="alternateBounds" />
          </mxGeometry>
        </mxCell>
        <mxCell id="OrH7R6QqTdeNsJV3QqQG-11" value="+sid:String&#xa;+amount:String&#xa;+date:String&#xa;+uid:String" style="text;strokeColor=none;fillColor=none;align=left;verticalAlign=top;spacingLeft=4;spacingRight=4;overflow=hidden;rotatable=0;points=[[0,0.5],[1,0.5]];portConstraint=eastwest;" parent="OrH7R6QqTdeNsJV3QqQG-10" vertex="1">
          <mxGeometry y="26" width="60" height="64" as="geometry" />
        </mxCell>
        <mxCell id="OrH7R6QqTdeNsJV3QqQG-12" value="" style="line;strokeWidth=1;fillColor=none;align=left;verticalAlign=middle;spacingTop=-1;spacingLeft=3;spacingRight=3;rotatable=0;labelPosition=right;points=[];portConstraint=eastwest;" parent="OrH7R6QqTdeNsJV3QqQG-10" vertex="1">
          <mxGeometry y="90" width="60" height="8" as="geometry" />
        </mxCell>
        <mxCell id="OrH7R6QqTdeNsJV3QqQG-13" value="+Shit(sid, amount, date, uid):&#xa;+getSid():String&#xa;+setSid(sid):void&#xa;+getAmount():String&#xa;+setAmount(amount):void&#xa;+getDate():String&#xa;+setDate(date):void&#xa;+getUid():String&#xa;+setUid(uid):void&#xa;+getType():int&#xa;&#xa;" style="text;strokeColor=none;fillColor=none;align=left;verticalAlign=top;spacingLeft=4;spacingRight=4;overflow=hidden;rotatable=0;points=[[0,0.5],[1,0.5]];portConstraint=eastwest;" parent="OrH7R6QqTdeNsJV3QqQG-10" vertex="1">
          <mxGeometry y="98" width="60" height="162" as="geometry" />
        </mxCell>
        <mxCell id="OrH7R6QqTdeNsJV3QqQG-18" value="Pee" style="swimlane;fontStyle=1;align=center;verticalAlign=top;childLayout=stackLayout;horizontal=1;startSize=26;horizontalStack=0;resizeParent=1;resizeParentMax=0;resizeLast=0;collapsible=1;marginBottom=0;" parent="1" vertex="1" collapsed="1">
          <mxGeometry x="170" y="70" width="50" height="26" as="geometry">
            <mxRectangle x="170" y="70" width="190" height="260" as="alternateBounds" />
          </mxGeometry>
        </mxCell>
        <mxCell id="OrH7R6QqTdeNsJV3QqQG-19" value="+ wid: String&#xa;+amount: String&#xa;+date: String&#xa;+uid: String&#xa;&#xa;&#xa;" style="text;strokeColor=none;fillColor=none;align=left;verticalAlign=top;spacingLeft=4;spacingRight=4;overflow=hidden;rotatable=0;points=[[0,0.5],[1,0.5]];portConstraint=eastwest;" parent="OrH7R6QqTdeNsJV3QqQG-18" vertex="1">
          <mxGeometry y="26" width="50" height="64" as="geometry" />
        </mxCell>
        <mxCell id="OrH7R6QqTdeNsJV3QqQG-20" value="" style="line;strokeWidth=1;fillColor=none;align=left;verticalAlign=middle;spacingTop=-1;spacingLeft=3;spacingRight=3;rotatable=0;labelPosition=right;points=[];portConstraint=eastwest;" parent="OrH7R6QqTdeNsJV3QqQG-18" vertex="1">
          <mxGeometry y="90" width="50" height="10" as="geometry" />
        </mxCell>
        <mxCell id="OrH7R6QqTdeNsJV3QqQG-21" value="+Water(wid, amount, date, uid):&#xa;+getWid():String&#xa;+setWid(wid):void&#xa;+getAmount():String&#xa;+setAmount(amount):void&#xa;+getDate():String&#xa;+setDate(date):void&#xa;+getUid():String&#xa;+setUid(uid):void&#xa;+getType():int&#xa;&#xa;" style="text;strokeColor=none;fillColor=none;align=left;verticalAlign=top;spacingLeft=4;spacingRight=4;overflow=hidden;rotatable=0;points=[[0,0.5],[1,0.5]];portConstraint=eastwest;" parent="OrH7R6QqTdeNsJV3QqQG-18" vertex="1">
          <mxGeometry y="100" width="50" height="160" as="geometry" />
        </mxCell>
        <mxCell id="OrH7R6QqTdeNsJV3QqQG-26" value="Type" style="swimlane;fontStyle=1;align=center;verticalAlign=top;childLayout=stackLayout;horizontal=1;startSize=26;horizontalStack=0;resizeParent=1;resizeParentMax=0;resizeLast=0;collapsible=1;marginBottom=0;" parent="1" vertex="1" collapsed="1">
          <mxGeometry x="190" y="340" width="60" height="26" as="geometry">
            <mxRectangle x="190" y="340" width="160" height="126" as="alternateBounds" />
          </mxGeometry>
        </mxCell>
        <mxCell id="OrH7R6QqTdeNsJV3QqQG-27" value="+TYPE_WATER &#xa;+int TYPE_PEE&#xa;+int TYPE_SHIT" style="text;strokeColor=none;fillColor=none;align=left;verticalAlign=top;spacingLeft=4;spacingRight=4;overflow=hidden;rotatable=0;points=[[0,0.5],[1,0.5]];portConstraint=eastwest;" parent="OrH7R6QqTdeNsJV3QqQG-26" vertex="1">
          <mxGeometry y="26" width="60" height="54" as="geometry" />
        </mxCell>
        <mxCell id="OrH7R6QqTdeNsJV3QqQG-28" value="" style="line;strokeWidth=1;fillColor=none;align=left;verticalAlign=middle;spacingTop=-1;spacingLeft=3;spacingRight=3;rotatable=0;labelPosition=right;points=[];portConstraint=eastwest;" parent="OrH7R6QqTdeNsJV3QqQG-26" vertex="1">
          <mxGeometry y="80" width="60" height="20" as="geometry" />
        </mxCell>
        <mxCell id="OrH7R6QqTdeNsJV3QqQG-29" value="+getType():int" style="text;strokeColor=none;fillColor=none;align=left;verticalAlign=top;spacingLeft=4;spacingRight=4;overflow=hidden;rotatable=0;points=[[0,0.5],[1,0.5]];portConstraint=eastwest;" parent="OrH7R6QqTdeNsJV3QqQG-26" vertex="1">
          <mxGeometry y="100" width="60" height="26" as="geometry" />
        </mxCell>
        <mxCell id="OrH7R6QqTdeNsJV3QqQG-30" value="User" style="swimlane;fontStyle=1;align=center;verticalAlign=top;childLayout=stackLayout;horizontal=1;startSize=26;horizontalStack=0;resizeParent=1;resizeParentMax=0;resizeLast=0;collapsible=1;marginBottom=0;" parent="1" vertex="1" collapsed="1">
          <mxGeometry x="550" y="105" width="50" height="26" as="geometry">
            <mxRectangle x="550" y="105" width="250" height="250" as="alternateBounds" />
          </mxGeometry>
        </mxCell>
        <mxCell id="OrH7R6QqTdeNsJV3QqQG-31" value="+uid: String&#xa;+firstname: String&#xa;+lastname: String &#xa;+birth: String" style="text;strokeColor=none;fillColor=none;align=left;verticalAlign=top;spacingLeft=4;spacingRight=4;overflow=hidden;rotatable=0;points=[[0,0.5],[1,0.5]];portConstraint=eastwest;" parent="OrH7R6QqTdeNsJV3QqQG-30" vertex="1">
          <mxGeometry y="26" width="50" height="64" as="geometry" />
        </mxCell>
        <mxCell id="OrH7R6QqTdeNsJV3QqQG-32" value="" style="line;strokeWidth=1;fillColor=none;align=left;verticalAlign=middle;spacingTop=-1;spacingLeft=3;spacingRight=3;rotatable=0;labelPosition=right;points=[];portConstraint=eastwest;" parent="OrH7R6QqTdeNsJV3QqQG-30" vertex="1">
          <mxGeometry y="90" width="50" height="20" as="geometry" />
        </mxCell>
        <mxCell id="OrH7R6QqTdeNsJV3QqQG-33" value="+User (uid, firstname, lastname, birth):&#xa;+getUid():String&#xa;+setUid(uid):void&#xa;+getFirstname():String&#xa;+setFirstname(firstname):void&#xa;+getLastname():String&#xa;+setLastname(lastname):void&#xa;+getBirth():String&#xa;+setBirth(birth):void&#xa;" style="text;strokeColor=none;fillColor=none;align=left;verticalAlign=top;spacingLeft=4;spacingRight=4;overflow=hidden;rotatable=0;points=[[0,0.5],[1,0.5]];portConstraint=eastwest;" parent="OrH7R6QqTdeNsJV3QqQG-30" vertex="1">
          <mxGeometry y="110" width="50" height="140" as="geometry" />
        </mxCell>
        <mxCell id="OrH7R6QqTdeNsJV3QqQG-38" value="DataAccess" style="swimlane;fontStyle=1;align=center;verticalAlign=top;childLayout=stackLayout;horizontal=1;startSize=26;horizontalStack=0;resizeParent=1;resizeParentMax=0;resizeLast=0;collapsible=1;marginBottom=0;" parent="1" vertex="1" collapsed="1">
          <mxGeometry x="170" y="517" width="100" height="26" as="geometry">
            <mxRectangle x="170" y="517" width="170" height="136" as="alternateBounds" />
          </mxGeometry>
        </mxCell>
        <mxCell id="OrH7R6QqTdeNsJV3QqQG-41" value="+DataAccess():&#xa;+getWater(user):Water&#xa;+setWater(user, water):boolean&#xa;+getPee(user):Pee&#xa;+setPee(user, pee):boolean&#xa;+getShit(user):Shit&#xa;+setShit(user, shit):boolean&#xa;" style="text;strokeColor=none;fillColor=none;align=left;verticalAlign=top;spacingLeft=4;spacingRight=4;overflow=hidden;rotatable=0;points=[[0,0.5],[1,0.5]];portConstraint=eastwest;" parent="OrH7R6QqTdeNsJV3QqQG-38" vertex="1">
          <mxGeometry y="26" width="100" height="110" as="geometry" />
        </mxCell>
        <mxCell id="OrH7R6QqTdeNsJV3QqQG-42" value="MySQLConnection" style="swimlane;fontStyle=1;align=center;verticalAlign=top;childLayout=stackLayout;horizontal=1;startSize=26;horizontalStack=0;resizeParent=1;resizeParentMax=0;resizeLast=0;collapsible=1;marginBottom=0;" parent="1" vertex="1" collapsed="1">
          <mxGeometry x="370" y="517" width="140" height="26" as="geometry">
            <mxRectangle x="370" y="517" width="160" height="150" as="alternateBounds" />
          </mxGeometry>
        </mxCell>
        <mxCell id="OrH7R6QqTdeNsJV3QqQG-43" value="+host: String&#xa;+port: String &#xa;+db: String &#xa;+username: String &#xa;+password: String" style="text;strokeColor=none;fillColor=none;align=left;verticalAlign=top;spacingLeft=4;spacingRight=4;overflow=hidden;rotatable=0;points=[[0,0.5],[1,0.5]];portConstraint=eastwest;" parent="OrH7R6QqTdeNsJV3QqQG-42" vertex="1">
          <mxGeometry y="26" width="140" height="74" as="geometry" />
        </mxCell>
        <mxCell id="OrH7R6QqTdeNsJV3QqQG-44" value="" style="line;strokeWidth=1;fillColor=none;align=left;verticalAlign=middle;spacingTop=-1;spacingLeft=3;spacingRight=3;rotatable=0;labelPosition=right;points=[];portConstraint=eastwest;" parent="OrH7R6QqTdeNsJV3QqQG-42" vertex="1">
          <mxGeometry y="100" width="140" height="8" as="geometry" />
        </mxCell>
        <mxCell id="OrH7R6QqTdeNsJV3QqQG-45" value="+startConnection():&#xa;+closeConnection():void" style="text;strokeColor=none;fillColor=none;align=left;verticalAlign=top;spacingLeft=4;spacingRight=4;overflow=hidden;rotatable=0;points=[[0,0.5],[1,0.5]];portConstraint=eastwest;" parent="OrH7R6QqTdeNsJV3QqQG-42" vertex="1">
          <mxGeometry y="108" width="140" height="42" as="geometry" />
        </mxCell>
        <mxCell id="2PlR7ptEfi9enpRTqfxQ-1" value="AllTimeFragment (extends)" style="swimlane;fontStyle=1;align=center;verticalAlign=top;childLayout=stackLayout;horizontal=1;startSize=26;horizontalStack=0;resizeParent=1;resizeParentMax=0;resizeLast=0;collapsible=1;marginBottom=0;" vertex="1" parent="1">
          <mxGeometry x="420" y="310" width="160" height="86" as="geometry" />
        </mxCell>
        <mxCell id="2PlR7ptEfi9enpRTqfxQ-2" value="+ field: type" style="text;strokeColor=none;fillColor=none;align=left;verticalAlign=top;spacingLeft=4;spacingRight=4;overflow=hidden;rotatable=0;points=[[0,0.5],[1,0.5]];portConstraint=eastwest;" vertex="1" parent="2PlR7ptEfi9enpRTqfxQ-1">
          <mxGeometry y="26" width="160" height="26" as="geometry" />
        </mxCell>
        <mxCell id="2PlR7ptEfi9enpRTqfxQ-3" value="" style="line;strokeWidth=1;fillColor=none;align=left;verticalAlign=middle;spacingTop=-1;spacingLeft=3;spacingRight=3;rotatable=0;labelPosition=right;points=[];portConstraint=eastwest;" vertex="1" parent="2PlR7ptEfi9enpRTqfxQ-1">
          <mxGeometry y="52" width="160" height="8" as="geometry" />
        </mxCell>
        <mxCell id="2PlR7ptEfi9enpRTqfxQ-4" value="+ method(type): type" style="text;strokeColor=none;fillColor=none;align=left;verticalAlign=top;spacingLeft=4;spacingRight=4;overflow=hidden;rotatable=0;points=[[0,0.5],[1,0.5]];portConstraint=eastwest;" vertex="1" parent="2PlR7ptEfi9enpRTqfxQ-1">
          <mxGeometry y="60" width="160" height="26" as="geometry" />
        </mxCell>
      </root>
    </mxGraphModel>
  </diagram>
</mxfile>
